<svg width="40" height="40" viewBox="0 0 40 40" fill="none" xmlns="http://www.w3.org/2000/svg">
<path d="M36.25 5H3.75C1.6875 5 0 6.6875 0 8.75V33.75C0 35.8125 1.6875 37.5 3.75 37.5H36.25C38.3125 37.5 40 35.8125 40 33.75V8.75C40 6.6875 38.3125 5 36.25 5ZM15.5758 21.4989L5 29.7369V10.1415L15.5758 21.4989ZM6.88984 10H33.1102L20 19.8438L6.88984 10ZM15.9878 21.9413L20 26.25L24.0121 21.9413L32.2369 32.5H7.76312L15.9878 21.9413ZM24.4242 21.4989L35 10.1415V29.7369L24.4242 21.4989Z" fill="white"/>
</svg>
