<svg width="50" height="50" viewBox="0 0 50 50" fill="none" xmlns="http://www.w3.org/2000/svg">
<path d="M23.3081 0.0353012C13.0379 0.788437 4.41606 7.49879 1.21425 17.2353C0.373093 19.7932 0 22.168 0 25.038C0 26.8632 0.0949691 27.9352 0.40701 29.6179C1.53307 35.7447 4.97909 41.2609 10.0328 45.0537C10.4466 45.3591 10.9486 45.7187 11.1521 45.8476C11.3556 45.9765 11.6948 46.1936 11.8983 46.3225C13.5263 47.3606 16.1312 48.5073 18.173 49.084C20.4862 49.7286 22.4738 50 24.9565 50C26.6321 50 27.5275 49.9322 28.9927 49.6947C35.3828 48.6701 41.0877 45.2166 45.0289 39.9718C49.9334 33.4514 51.324 24.7327 48.6852 16.9978C47.0843 12.289 44.3777 8.4894 40.2805 5.19868C39.887 4.87979 38.8492 4.16058 38.1844 3.75348C34.9215 1.72476 31.2855 0.489895 27.4325 0.103149C26.4421 0.00137329 24.2239 -0.032547 23.3081 0.0353012ZM20.9543 13.6053C21.5783 13.8021 22.0057 14.0192 22.5619 14.4331C22.8062 14.6163 23.2064 14.8469 23.4438 14.9487C23.8305 15.1116 23.9526 15.1251 24.7191 15.1319C25.8045 15.1319 26.1708 15.0098 27.0255 14.3584C27.4122 14.0667 28.1516 13.7206 28.7214 13.5646C29.3048 13.4085 30.4919 13.4085 31.0956 13.5646C32.8457 14.0192 34.2567 15.4033 34.6909 17.0996C34.8469 17.7034 34.874 18.443 34.7587 18.7008C34.5891 19.074 34.0464 19.1486 33.7412 18.8433C33.5851 18.6805 33.5444 18.5719 33.5037 18.1784C33.402 17.1674 33.1103 16.5093 32.4591 15.8511C31.6586 15.0369 30.5461 14.6502 29.4472 14.813C28.8367 14.9012 28.2126 15.1658 27.7242 15.539C27.2697 15.885 26.5235 16.2311 25.8655 16.4007C25.3907 16.5161 25.1736 16.5364 24.5156 16.5025C24.0204 16.4753 23.5795 16.4143 23.3149 16.3329C22.7926 16.1632 22.0261 15.7561 21.5309 15.383C20.9543 14.9487 20.4319 14.7927 19.5297 14.7994C18.8853 14.7994 18.7225 14.8266 18.3223 14.9826C16.9249 15.5322 16.0633 16.7196 15.9887 18.2191C15.8327 21.2045 17.5354 24.4952 20.2352 26.4086C22.0125 27.6706 24.0475 28.3559 26.2522 28.4441C30.6818 28.6205 34.6773 26.3204 36.5224 22.5276C37.1058 21.3334 37.3839 20.2682 37.4653 18.9044C37.5128 18.0698 37.5196 18.063 37.7299 17.8731C38.0351 17.6017 38.3607 17.6084 38.6389 17.8866L38.8492 18.0902L38.8084 18.9519C38.5914 23.8371 34.9554 28.1184 29.9288 29.4075C28.7146 29.7197 28.1855 29.7807 26.7202 29.7875C25.35 29.7875 24.9497 29.7468 23.7694 29.4686C20.2352 28.6476 17.1826 26.2254 15.697 23.0771C14.9576 21.5166 14.6524 20.2003 14.6524 18.5583C14.6456 17.6424 14.6659 17.4456 14.8016 16.9978C15.1137 16.0004 15.6563 15.1794 16.4229 14.5348C16.8909 14.1413 17.8949 13.646 18.4104 13.5442C18.6139 13.5035 18.8446 13.456 18.9192 13.4424C19.2516 13.361 20.493 13.4628 20.9543 13.6053ZM15.5071 25.2551C15.6428 25.3773 15.7377 25.6487 15.7988 26.0897C16.1583 28.5866 17.4404 31.6262 19.0481 33.7974C20.2149 35.3716 20.8593 35.989 21.3613 35.9958C21.7818 35.9958 22.3652 35.6565 22.5619 35.2969C22.6026 35.2223 22.6569 34.9305 22.6908 34.6456C22.8265 33.4378 23.5795 32.7254 24.7191 32.7186C25.7841 32.7186 26.6049 33.5057 26.727 34.6388C26.7813 35.1951 26.9577 35.5412 27.2833 35.7515C27.8395 36.1179 28.3415 36.0704 28.857 35.609C29.6914 34.8559 31.0549 32.9493 31.8486 31.4159C32.1063 30.9206 32.3709 30.4728 32.432 30.4253C32.493 30.371 32.6762 30.3303 32.8322 30.3303C33.2188 30.3303 33.4766 30.5746 33.4902 30.9342C33.497 31.2395 32.9882 32.2708 32.2352 33.465C31.6179 34.4488 31.3195 34.8559 30.3698 35.9754C29.7728 36.6811 29.61 36.8303 29.2437 37.0135C28.6468 37.3053 28.0769 37.4003 27.5546 37.2917C26.3675 37.0474 25.5738 36.1925 25.411 34.9916C25.3296 34.4352 25.2007 34.191 24.943 34.0892C24.4613 33.906 24.0815 34.252 24.0204 34.9441C23.8372 36.9185 21.619 37.9702 19.9706 36.8778C19.3873 36.4911 17.9559 34.727 17.1012 33.3428C15.9345 31.4498 15.0458 29.204 14.6117 27.0396C14.3268 25.6419 14.3403 25.3908 14.7338 25.1737C14.9441 25.0584 15.3307 25.0991 15.5071 25.2551Z" fill="#3EA6A0"/>
</svg>
