<svg width="255" height="93" viewBox="0 0 255 93" fill="none" xmlns="http://www.w3.org/2000/svg">
<path d="M90.1631 56.0083H84.2832V72H80.3281V56.0083H74.5273V52.8047H90.1631V56.0083ZM95.8979 59.291C96.9087 58.0781 98.1787 57.4717 99.708 57.4717C102.802 57.4717 104.371 59.269 104.415 62.8638V72H100.604V62.9692C100.604 62.1519 100.429 61.5498 100.077 61.1631C99.7256 60.7676 99.1411 60.5698 98.3237 60.5698C97.2075 60.5698 96.3989 61.0005 95.8979 61.8618V72H92.0879V51.75H95.8979V59.291ZM113.854 72.2637C111.762 72.2637 110.057 71.6221 108.739 70.3389C107.429 69.0557 106.774 67.3462 106.774 65.2104V64.8413C106.774 63.4087 107.051 62.1299 107.605 61.0049C108.159 59.8711 108.941 59.001 109.952 58.3945C110.971 57.7793 112.131 57.4717 113.432 57.4717C115.383 57.4717 116.917 58.0869 118.033 59.3174C119.158 60.5479 119.721 62.2925 119.721 64.5513V66.1069H110.637C110.76 67.0386 111.129 67.7856 111.745 68.3481C112.369 68.9106 113.155 69.1919 114.104 69.1919C115.572 69.1919 116.719 68.6602 117.545 67.5967L119.417 69.6929C118.846 70.5015 118.073 71.1343 117.097 71.5913C116.122 72.0396 115.041 72.2637 113.854 72.2637ZM113.419 60.5566C112.663 60.5566 112.048 60.8115 111.573 61.3213C111.107 61.8311 110.809 62.5605 110.677 63.5098H115.977V63.2065C115.959 62.3628 115.73 61.7124 115.291 61.2554C114.852 60.7896 114.228 60.5566 113.419 60.5566ZM128.87 72V52.8047H134.776C136.464 52.8047 137.971 53.187 139.298 53.9517C140.634 54.7075 141.676 55.7886 142.423 57.1948C143.17 58.5923 143.543 60.1831 143.543 61.9673V62.8506C143.543 64.6348 143.174 66.2212 142.436 67.6099C141.707 68.9985 140.674 70.0752 139.338 70.8398C138.002 71.6045 136.495 71.9912 134.816 72H128.87ZM132.825 56.0083V68.8228H134.737C136.284 68.8228 137.466 68.3174 138.283 67.3066C139.101 66.2959 139.518 64.8501 139.536 62.9692V61.9541C139.536 60.0029 139.131 58.5264 138.323 57.5244C137.514 56.5137 136.332 56.0083 134.776 56.0083H132.825ZM152.746 72.2637C150.654 72.2637 148.949 71.6221 147.63 70.3389C146.321 69.0557 145.666 67.3462 145.666 65.2104V64.8413C145.666 63.4087 145.943 62.1299 146.497 61.0049C147.05 59.8711 147.833 59.001 148.843 58.3945C149.863 57.7793 151.023 57.4717 152.324 57.4717C154.275 57.4717 155.809 58.0869 156.925 59.3174C158.05 60.5479 158.612 62.2925 158.612 64.5513V66.1069H149.529C149.652 67.0386 150.021 67.7856 150.636 68.3481C151.26 68.9106 152.047 69.1919 152.996 69.1919C154.464 69.1919 155.611 68.6602 156.437 67.5967L158.309 69.6929C157.738 70.5015 156.964 71.1343 155.989 71.5913C155.013 72.0396 153.932 72.2637 152.746 72.2637ZM152.311 60.5566C151.555 60.5566 150.939 60.8115 150.465 61.3213C149.999 61.8311 149.7 62.5605 149.568 63.5098H154.868V63.2065C154.851 62.3628 154.622 61.7124 154.183 61.2554C153.743 60.7896 153.119 60.5566 152.311 60.5566ZM164.294 57.7354L164.413 59.3833C165.433 58.1089 166.799 57.4717 168.513 57.4717C170.025 57.4717 171.15 57.9155 171.888 58.8032C172.626 59.6909 173.004 61.0181 173.022 62.7847V72H169.212V62.877C169.212 62.0684 169.036 61.4839 168.685 61.1235C168.333 60.7544 167.749 60.5698 166.931 60.5698C165.859 60.5698 165.055 61.0269 164.519 61.9409V72H160.708V57.7354H164.294ZM180.484 54.2285V57.7354H182.923V60.5303H180.484V67.6494C180.484 68.1768 180.585 68.5547 180.787 68.7832C180.989 69.0117 181.376 69.126 181.947 69.126C182.369 69.126 182.743 69.0952 183.068 69.0337V71.9209C182.321 72.1494 181.552 72.2637 180.761 72.2637C178.089 72.2637 176.727 70.9146 176.674 68.2163V60.5303H174.591V57.7354H176.674V54.2285H180.484Z" fill="#233348"/>
<path d="M152 25C152 38.8071 140.807 50 127 50C113.193 50 102 38.8071 102 25C102 11.1929 113.193 0 127 0C140.807 0 152 11.1929 152 25Z" fill="white"/>
<path d="M125.308 0.0353012C115.038 0.788437 106.416 7.49879 103.214 17.2353C102.373 19.7932 102 22.168 102 25.038C102 26.8632 102.095 27.9352 102.407 29.6179C103.533 35.7447 106.979 41.2609 112.033 45.0537C112.447 45.3591 112.949 45.7187 113.152 45.8476C113.356 45.9765 113.695 46.1936 113.898 46.3225C115.526 47.3606 118.131 48.5073 120.173 49.084C122.486 49.7286 124.474 50 126.957 50C128.632 50 129.527 49.9322 130.993 49.6947C137.383 48.6701 143.088 45.2166 147.029 39.9718C151.933 33.4514 153.324 24.7327 150.685 16.9978C149.084 12.289 146.378 8.4894 142.28 5.19868C141.887 4.87979 140.849 4.16058 140.184 3.75348C136.922 1.72476 133.286 0.489895 129.433 0.103149C128.442 0.00137329 126.224 -0.032547 125.308 0.0353012ZM122.954 13.6053C123.578 13.8021 124.006 14.0192 124.562 14.4331C124.806 14.6163 125.206 14.8469 125.444 14.9487C125.83 15.1116 125.953 15.1251 126.719 15.1319C127.804 15.1319 128.171 15.0098 129.025 14.3584C129.412 14.0667 130.152 13.7206 130.721 13.5646C131.305 13.4085 132.492 13.4085 133.096 13.5646C134.846 14.0192 136.257 15.4033 136.691 17.0996C136.847 17.7034 136.874 18.443 136.759 18.7008C136.589 19.074 136.046 19.1486 135.741 18.8433C135.585 18.6805 135.544 18.5719 135.504 18.1784C135.402 17.1674 135.11 16.5093 134.459 15.8511C133.659 15.0369 132.546 14.6502 131.447 14.813C130.837 14.9012 130.213 15.1658 129.724 15.539C129.27 15.885 128.524 16.2311 127.866 16.4007C127.391 16.5161 127.174 16.5364 126.516 16.5025C126.02 16.4753 125.579 16.4143 125.315 16.3329C124.793 16.1632 124.026 15.7561 123.531 15.383C122.954 14.9487 122.432 14.7927 121.53 14.7994C120.885 14.7994 120.722 14.8266 120.322 14.9826C118.925 15.5322 118.063 16.7196 117.989 18.2191C117.833 21.2045 119.535 24.4952 122.235 26.4086C124.012 27.6706 126.048 28.3559 128.252 28.4441C132.682 28.6205 136.677 26.3204 138.522 22.5276C139.106 21.3334 139.384 20.2682 139.465 18.9044C139.513 18.0698 139.52 18.063 139.73 17.8731C140.035 17.6017 140.361 17.6084 140.639 17.8866L140.849 18.0902L140.808 18.9519C140.591 23.8371 136.955 28.1184 131.929 29.4075C130.715 29.7197 130.185 29.7807 128.72 29.7875C127.35 29.7875 126.95 29.7468 125.769 29.4686C122.235 28.6476 119.183 26.2254 117.697 23.0771C116.958 21.5166 116.652 20.2003 116.652 18.5583C116.646 17.6424 116.666 17.4456 116.802 16.9978C117.114 16.0004 117.656 15.1794 118.423 14.5348C118.891 14.1413 119.895 13.646 120.41 13.5442C120.614 13.5035 120.845 13.456 120.919 13.4424C121.252 13.361 122.493 13.4628 122.954 13.6053ZM117.507 25.2551C117.643 25.3773 117.738 25.6487 117.799 26.0897C118.158 28.5866 119.44 31.6262 121.048 33.7974C122.215 35.3716 122.859 35.989 123.361 35.9958C123.782 35.9958 124.365 35.6565 124.562 35.2969C124.603 35.2223 124.657 34.9305 124.691 34.6456C124.827 33.4378 125.579 32.7254 126.719 32.7186C127.784 32.7186 128.605 33.5057 128.727 34.6388C128.781 35.1951 128.958 35.5412 129.283 35.7515C129.84 36.1179 130.341 36.0704 130.857 35.609C131.691 34.8559 133.055 32.9493 133.849 31.4159C134.106 30.9206 134.371 30.4728 134.432 30.4253C134.493 30.371 134.676 30.3303 134.832 30.3303C135.219 30.3303 135.477 30.5746 135.49 30.9342C135.497 31.2395 134.988 32.2708 134.235 33.465C133.618 34.4488 133.319 34.8559 132.37 35.9754C131.773 36.6811 131.61 36.8303 131.244 37.0135C130.647 37.3053 130.077 37.4003 129.555 37.2917C128.367 37.0474 127.574 36.1925 127.411 34.9916C127.33 34.4352 127.201 34.191 126.943 34.0892C126.461 33.906 126.081 34.252 126.02 34.9441C125.837 36.9185 123.619 37.9702 121.971 36.8778C121.387 36.4911 119.956 34.727 119.101 33.3428C117.934 31.4498 117.046 29.204 116.612 27.0396C116.327 25.6419 116.34 25.3908 116.734 25.1737C116.944 25.0584 117.331 25.0991 117.507 25.2551Z" fill="#3EA6A0"/>
<path d="M16.5381 84.9395C16.3799 86.293 15.8789 87.3389 15.0352 88.0771C14.1973 88.8096 13.0811 89.1758 11.6865 89.1758C10.1748 89.1758 8.96191 88.6338 8.04785 87.5498C7.13965 86.4658 6.68555 85.0156 6.68555 83.1992V81.9688C6.68555 80.7793 6.89648 79.7334 7.31836 78.8311C7.74609 77.9287 8.34961 77.2373 9.12891 76.7568C9.9082 76.2705 10.8105 76.0273 11.8359 76.0273C13.1953 76.0273 14.2852 76.4082 15.1055 77.1699C15.9258 77.9258 16.4033 78.9746 16.5381 80.3164H14.8418C14.6953 79.2969 14.376 78.5586 13.8838 78.1016C13.3975 77.6445 12.7148 77.416 11.8359 77.416C10.7578 77.416 9.91113 77.8145 9.2959 78.6113C8.68652 79.4082 8.38184 80.542 8.38184 82.0127V83.252C8.38184 84.6406 8.67188 85.7451 9.25195 86.5654C9.83203 87.3857 10.6436 87.7959 11.6865 87.7959C12.624 87.7959 13.3418 87.585 13.8398 87.1631C14.3438 86.7354 14.6777 85.9941 14.8418 84.9395H16.5381ZM25.6611 80.8086H22.4707V89H20.8447V80.8086H17.7158V79.4902H25.6611V80.8086ZM26.4434 84.1572C26.4434 83.2256 26.625 82.3877 26.9883 81.6436C27.3574 80.8994 27.8672 80.3252 28.5176 79.9209C29.1738 79.5166 29.9209 79.3145 30.7588 79.3145C32.0537 79.3145 33.0996 79.7627 33.8965 80.6592C34.6992 81.5557 35.1006 82.748 35.1006 84.2363V84.3506C35.1006 85.2764 34.9219 86.1084 34.5645 86.8467C34.2129 87.5791 33.7061 88.1504 33.0439 88.5605C32.3877 88.9707 31.6318 89.1758 30.7764 89.1758C29.4873 89.1758 28.4414 88.7275 27.6387 87.8311C26.8418 86.9346 26.4434 85.748 26.4434 84.2715V84.1572ZM28.0781 84.3506C28.0781 85.4053 28.3213 86.252 28.8076 86.8906C29.2998 87.5293 29.9561 87.8486 30.7764 87.8486C31.6025 87.8486 32.2588 87.5264 32.7451 86.8818C33.2314 86.2314 33.4746 85.3232 33.4746 84.1572C33.4746 83.1143 33.2256 82.2705 32.7275 81.626C32.2354 80.9756 31.5791 80.6504 30.7588 80.6504C29.9561 80.6504 29.3086 80.9697 28.8164 81.6084C28.3242 82.2471 28.0781 83.1611 28.0781 84.3506ZM42.6152 86.8467L45.8496 79.4902H47.8799V89H46.2539V82.083L43.1777 89H42.0527L38.915 81.9336V89H37.2891V79.4902H39.3984L42.6152 86.8467ZM56.3701 89C56.2764 88.8125 56.2002 88.4785 56.1416 87.998C55.3857 88.7832 54.4834 89.1758 53.4346 89.1758C52.4971 89.1758 51.7266 88.9121 51.123 88.3848C50.5254 87.8516 50.2266 87.1777 50.2266 86.3633C50.2266 85.373 50.6016 84.6055 51.3516 84.0605C52.1074 83.5098 53.168 83.2344 54.5332 83.2344H56.1152V82.4873C56.1152 81.9189 55.9453 81.4678 55.6055 81.1338C55.2656 80.7939 54.7646 80.624 54.1025 80.624C53.5225 80.624 53.0361 80.7705 52.6436 81.0635C52.251 81.3564 52.0547 81.7109 52.0547 82.127H50.4199C50.4199 81.6523 50.5869 81.1953 50.9209 80.7559C51.2607 80.3105 51.7178 79.959 52.292 79.7012C52.8721 79.4434 53.5078 79.3145 54.1992 79.3145C55.2949 79.3145 56.1533 79.5898 56.7744 80.1406C57.3955 80.6855 57.7178 81.4385 57.7412 82.3994V86.7764C57.7412 87.6494 57.8525 88.3438 58.0752 88.8594V89H56.3701ZM53.6719 87.7607C54.1816 87.7607 54.665 87.6289 55.1221 87.3652C55.5791 87.1016 55.9102 86.7588 56.1152 86.3369V84.3857H54.8408C52.8486 84.3857 51.8525 84.9688 51.8525 86.1348C51.8525 86.6445 52.0225 87.043 52.3623 87.3301C52.7021 87.6172 53.1387 87.7607 53.6719 87.7607ZM67.2158 80.8086H64.0254V89H62.3994V80.8086H59.2705V79.4902H67.2158V80.8086ZM67.998 84.1572C67.998 83.2256 68.1797 82.3877 68.543 81.6436C68.9121 80.8994 69.4219 80.3252 70.0723 79.9209C70.7285 79.5166 71.4756 79.3145 72.3135 79.3145C73.6084 79.3145 74.6543 79.7627 75.4512 80.6592C76.2539 81.5557 76.6553 82.748 76.6553 84.2363V84.3506C76.6553 85.2764 76.4766 86.1084 76.1191 86.8467C75.7676 87.5791 75.2607 88.1504 74.5986 88.5605C73.9424 88.9707 73.1865 89.1758 72.3311 89.1758C71.042 89.1758 69.9961 88.7275 69.1934 87.8311C68.3965 86.9346 67.998 85.748 67.998 84.2715V84.1572ZM69.6328 84.3506C69.6328 85.4053 69.876 86.252 70.3623 86.8906C70.8545 87.5293 71.5107 87.8486 72.3311 87.8486C73.1572 87.8486 73.8135 87.5264 74.2998 86.8818C74.7861 86.2314 75.0293 85.3232 75.0293 84.1572C75.0293 83.1143 74.7803 82.2705 74.2822 81.626C73.79 80.9756 73.1338 80.6504 72.3135 80.6504C71.5107 80.6504 70.8633 80.9697 70.3711 81.6084C69.8789 82.2471 69.6328 83.1611 69.6328 84.3506ZM86.3496 79.4902V89H84.7148V80.835H81.4805L81.2871 84.3945C81.1816 86.0293 80.9062 87.1982 80.4609 87.9014C80.0215 88.6045 79.3213 88.9707 78.3604 89H77.71V87.5674L78.1758 87.5322C78.7031 87.4736 79.0811 87.1689 79.3096 86.6182C79.5381 86.0674 79.6846 85.0479 79.749 83.5596L79.9248 79.4902H86.3496ZM88.5293 84.1572C88.5293 83.2256 88.7109 82.3877 89.0742 81.6436C89.4434 80.8994 89.9531 80.3252 90.6035 79.9209C91.2598 79.5166 92.0068 79.3145 92.8447 79.3145C94.1396 79.3145 95.1855 79.7627 95.9824 80.6592C96.7852 81.5557 97.1865 82.748 97.1865 84.2363V84.3506C97.1865 85.2764 97.0078 86.1084 96.6504 86.8467C96.2988 87.5791 95.792 88.1504 95.1299 88.5605C94.4736 88.9707 93.7178 89.1758 92.8623 89.1758C91.5732 89.1758 90.5273 88.7275 89.7246 87.8311C88.9277 86.9346 88.5293 85.748 88.5293 84.2715V84.1572ZM90.1641 84.3506C90.1641 85.4053 90.4072 86.252 90.8936 86.8906C91.3857 87.5293 92.042 87.8486 92.8623 87.8486C93.6885 87.8486 94.3447 87.5264 94.8311 86.8818C95.3174 86.2314 95.5605 85.3232 95.5605 84.1572C95.5605 83.1143 95.3115 82.2705 94.8135 81.626C94.3213 80.9756 93.665 80.6504 92.8447 80.6504C92.042 80.6504 91.3945 80.9697 90.9023 81.6084C90.4102 82.2471 90.1641 83.1611 90.1641 84.3506ZM105.369 80.835H100.983V89H99.3486V79.4902H105.369V80.835ZM112.937 79.4902H114.562V89H112.937V82.0654L108.551 89H106.925V79.4902H108.551V86.4336L112.937 79.4902ZM124.354 89H122.719V85.5547C122.004 85.7422 121.271 85.8359 120.521 85.8359C119.332 85.8359 118.424 85.5312 117.797 84.9219C117.176 84.3125 116.859 83.4453 116.848 82.3203V79.4814H118.474V82.373C118.503 83.791 119.186 84.5 120.521 84.5C121.271 84.5 122.004 84.4062 122.719 84.2188V79.4902H124.354V89ZM130.91 89.1758C129.621 89.1758 128.572 88.7539 127.764 87.9102C126.955 87.0605 126.551 85.9268 126.551 84.5088V84.21C126.551 83.2666 126.729 82.4258 127.087 81.6875C127.45 80.9434 127.954 80.3633 128.599 79.9473C129.249 79.5254 129.952 79.3145 130.708 79.3145C131.944 79.3145 132.905 79.7217 133.591 80.5361C134.276 81.3506 134.619 82.5166 134.619 84.0342V84.7109H128.177C128.2 85.6484 128.473 86.4072 128.994 86.9873C129.521 87.5615 130.189 87.8486 130.998 87.8486C131.572 87.8486 132.059 87.7314 132.457 87.4971C132.855 87.2627 133.204 86.9521 133.503 86.5654L134.496 87.3389C133.699 88.5635 132.504 89.1758 130.91 89.1758ZM130.708 80.6504C130.052 80.6504 129.501 80.8906 129.056 81.3711C128.61 81.8457 128.335 82.5137 128.229 83.375H132.993V83.252C132.946 82.4258 132.724 81.7871 132.325 81.3359C131.927 80.8789 131.388 80.6504 130.708 80.6504ZM140.323 87.8486C140.903 87.8486 141.41 87.6729 141.844 87.3213C142.277 86.9697 142.518 86.5303 142.564 86.0029H144.103C144.073 86.5479 143.886 87.0664 143.54 87.5586C143.194 88.0508 142.731 88.4434 142.151 88.7363C141.577 89.0293 140.968 89.1758 140.323 89.1758C139.028 89.1758 137.997 88.7451 137.229 87.8838C136.468 87.0166 136.087 85.833 136.087 84.333V84.0605C136.087 83.1348 136.257 82.3115 136.597 81.5908C136.937 80.8701 137.423 80.3105 138.056 79.9121C138.694 79.5137 139.447 79.3145 140.314 79.3145C141.381 79.3145 142.266 79.6338 142.969 80.2725C143.678 80.9111 144.056 81.7402 144.103 82.7598H142.564C142.518 82.1445 142.283 81.6406 141.861 81.248C141.445 80.8496 140.93 80.6504 140.314 80.6504C139.488 80.6504 138.847 80.9492 138.39 81.5469C137.938 82.1387 137.713 82.9971 137.713 84.1221V84.4297C137.713 85.5254 137.938 86.3691 138.39 86.9609C138.841 87.5527 139.485 87.8486 140.323 87.8486ZM148.893 84.9482H147.706V89H146.071V79.4902H147.706V83.5156H148.77L151.969 79.4902H153.938L150.176 84.0605L154.254 89H152.188L148.893 84.9482ZM161.522 89C161.429 88.8125 161.353 88.4785 161.294 87.998C160.538 88.7832 159.636 89.1758 158.587 89.1758C157.649 89.1758 156.879 88.9121 156.275 88.3848C155.678 87.8516 155.379 87.1777 155.379 86.3633C155.379 85.373 155.754 84.6055 156.504 84.0605C157.26 83.5098 158.32 83.2344 159.686 83.2344H161.268V82.4873C161.268 81.9189 161.098 81.4678 160.758 81.1338C160.418 80.7939 159.917 80.624 159.255 80.624C158.675 80.624 158.188 80.7705 157.796 81.0635C157.403 81.3564 157.207 81.7109 157.207 82.127H155.572C155.572 81.6523 155.739 81.1953 156.073 80.7559C156.413 80.3105 156.87 79.959 157.444 79.7012C158.024 79.4434 158.66 79.3145 159.352 79.3145C160.447 79.3145 161.306 79.5898 161.927 80.1406C162.548 80.6855 162.87 81.4385 162.894 82.3994V86.7764C162.894 87.6494 163.005 88.3438 163.228 88.8594V89H161.522ZM158.824 87.7607C159.334 87.7607 159.817 87.6289 160.274 87.3652C160.731 87.1016 161.062 86.7588 161.268 86.3369V84.3857H159.993C158.001 84.3857 157.005 84.9688 157.005 86.1348C157.005 86.6445 157.175 87.043 157.515 87.3301C157.854 87.6172 158.291 87.7607 158.824 87.7607ZM172.711 79.4902V89H171.076V85.2998H168.624L166.383 89H164.625L167.016 85.0537C166.406 84.8311 165.938 84.4883 165.609 84.0254C165.287 83.5566 165.126 83.0117 165.126 82.3906C165.126 81.5234 165.451 80.8262 166.102 80.2988C166.752 79.7656 167.622 79.4961 168.712 79.4902H172.711ZM166.761 82.4082C166.761 82.8711 166.919 83.2461 167.235 83.5332C167.552 83.8145 167.971 83.958 168.492 83.9639H171.076V80.8086H168.738C168.135 80.8086 167.654 80.958 167.297 81.2568C166.939 81.5498 166.761 81.9336 166.761 82.4082ZM182.748 84.9482H181.562V89H179.927V79.4902H181.562V83.5156H182.625L185.824 79.4902H187.793L184.031 84.0605L188.109 89H186.044L182.748 84.9482ZM197.303 79.4902V89H195.668V80.835H192.434L192.24 84.3945C192.135 86.0293 191.859 87.1982 191.414 87.9014C190.975 88.6045 190.274 88.9707 189.313 89H188.663V87.5674L189.129 87.5322C189.656 87.4736 190.034 87.1689 190.263 86.6182C190.491 86.0674 190.638 85.0479 190.702 83.5596L190.878 79.4902H197.303ZM206.065 79.4902H207.691V89H206.065V82.0654L201.68 89H200.054V79.4902H201.68V86.4336L206.065 79.4902ZM218.071 89H216.445V84.9395H212.077V89H210.442V79.4902H212.077V83.6123H216.445V79.4902H218.071V89ZM226.843 79.4902H228.469V89H226.843V82.0654L222.457 89H220.831V79.4902H222.457V86.4336L226.843 79.4902ZM234.041 84.9482H232.854V89H231.22V79.4902H232.854V83.5156H233.918L237.117 79.4902H239.086L235.324 84.0605L239.402 89H237.337L234.041 84.9482ZM246.671 89C246.577 88.8125 246.501 88.4785 246.442 87.998C245.687 88.7832 244.784 89.1758 243.735 89.1758C242.798 89.1758 242.027 88.9121 241.424 88.3848C240.826 87.8516 240.527 87.1777 240.527 86.3633C240.527 85.373 240.902 84.6055 241.652 84.0605C242.408 83.5098 243.469 83.2344 244.834 83.2344H246.416V82.4873C246.416 81.9189 246.246 81.4678 245.906 81.1338C245.566 80.7939 245.065 80.624 244.403 80.624C243.823 80.624 243.337 80.7705 242.944 81.0635C242.552 81.3564 242.355 81.7109 242.355 82.127H240.721C240.721 81.6523 240.888 81.1953 241.222 80.7559C241.562 80.3105 242.019 79.959 242.593 79.7012C243.173 79.4434 243.809 79.3145 244.5 79.3145C245.596 79.3145 246.454 79.5898 247.075 80.1406C247.696 80.6855 248.019 81.4385 248.042 82.3994V86.7764C248.042 87.6494 248.153 88.3438 248.376 88.8594V89H246.671ZM243.973 87.7607C244.482 87.7607 244.966 87.6289 245.423 87.3652C245.88 87.1016 246.211 86.7588 246.416 86.3369V84.3857H245.142C243.149 84.3857 242.153 84.9688 242.153 86.1348C242.153 86.6445 242.323 87.043 242.663 87.3301C243.003 87.6172 243.439 87.7607 243.973 87.7607Z" fill="#233348"/>
</svg>
